<svg width="27" height="27" viewBox="0 0 27 27" fill="none" xmlns="http://www.w3.org/2000/svg">
<path d="M8.79867 13.5001H14.8431C16.6977 13.5001 18.2012 11.9966 18.2012 10.142C18.2012 8.28741 16.6977 6.78397 14.8431 6.78397H8.79867V13.5001ZM8.79867 13.5001H16.1864C18.041 13.5001 19.5444 15.0035 19.5444 16.8581C19.5444 18.7127 18.041 20.2161 16.1864 20.2161H8.79867V13.5001ZM7.85841 25.589H19.1414C21.3983 25.589 22.5267 25.589 23.3887 25.1498C24.1469 24.7635 24.7633 24.147 25.1497 23.3888C25.5889 22.5268 25.5889 21.3984 25.5889 19.1416V7.85854C25.5889 5.60172 25.5889 4.47331 25.1497 3.61132C24.7633 2.8531 24.1469 2.23664 23.3887 1.8503C22.5267 1.41109 21.3983 1.41109 19.1414 1.41109L7.85841 1.41109C5.6016 1.41109 4.47319 1.41109 3.6112 1.8503C2.85297 2.23664 2.23651 2.8531 1.85017 3.61132C1.41097 4.47331 1.41097 5.60172 1.41097 7.85854L1.41097 19.1416C1.41097 21.3984 1.41097 22.5268 1.85017 23.3888C2.23651 24.147 2.85297 24.7635 3.6112 25.1498C4.47319 25.589 5.6016 25.589 7.85841 25.589Z" stroke="white" stroke-width="2.74205" stroke-linecap="round" stroke-linejoin="round"/>
</svg>
