<svg width="24" height="24" viewBox="0 0 24 24" fill="none" xmlns="http://www.w3.org/2000/svg">
<path d="M18.375 0H5.625C2.5184 0 0 2.5184 0 5.625V18.375C0 21.4816 2.5184 24 5.625 24H18.375C21.4816 24 24 21.4816 24 18.375V5.625C24 2.5184 21.4816 0 18.375 0Z" fill="white"/>
<path d="M18.375 0H5.625C2.5184 0 0 2.5184 0 5.625V18.375C0 21.4816 2.5184 24 5.625 24H18.375C21.4816 24 24 21.4816 24 18.375V5.625C24 2.5184 21.4816 0 18.375 0Z" fill="#3478F6"/>
<path d="M17.3169 20.408H20.061C20.1604 20.408 20.2558 20.3685 20.3261 20.2982C20.3964 20.2279 20.4359 20.1325 20.436 20.0331L20.4374 14.2354C20.4374 11.2051 19.7844 8.87587 16.2432 8.87587C14.897 8.82581 13.6276 9.51975 12.9425 10.6785C12.9392 10.6841 12.9341 10.6885 12.928 10.691C12.9219 10.6934 12.9152 10.6938 12.9089 10.6921C12.9026 10.6904 12.897 10.6867 12.893 10.6815C12.889 10.6763 12.8868 10.67 12.8868 10.6634V9.53062C12.8868 9.43117 12.8472 9.33579 12.7769 9.26546C12.7066 9.19513 12.6112 9.15562 12.5118 9.15562H9.90766C9.8082 9.15562 9.71282 9.19513 9.64249 9.26546C9.57217 9.33579 9.53266 9.43117 9.53266 9.53062V20.0325C9.53266 20.132 9.57217 20.2273 9.64249 20.2977C9.71282 20.368 9.8082 20.4075 9.90766 20.4075H12.6515C12.751 20.4075 12.8464 20.368 12.9167 20.2977C12.987 20.2273 13.0265 20.132 13.0265 20.0325V14.8413C13.0265 13.3734 13.305 11.9519 15.1248 11.9519C16.9187 11.9519 16.9419 13.6315 16.9419 14.9363V20.033C16.9419 20.1324 16.9814 20.2278 17.0517 20.2981C17.1221 20.3685 17.2175 20.408 17.3169 20.408ZM3.56238 5.59003C3.56238 6.70237 4.47803 7.61756 5.59038 7.61756C6.70244 7.61747 7.61753 6.70172 7.61753 5.58966C7.61735 4.47759 6.70216 3.5625 5.59 3.5625C4.47757 3.5625 3.56238 4.47778 3.56238 5.59003ZM4.21478 20.408H6.96232C7.06177 20.408 7.15715 20.3685 7.22748 20.2981C7.29781 20.2278 7.33732 20.1324 7.33732 20.033V9.53062C7.33732 9.43117 7.29781 9.33579 7.22748 9.26546C7.15715 9.19513 7.06177 9.15562 6.96232 9.15562H4.21478C4.11533 9.15562 4.01995 9.19513 3.94962 9.26546C3.87929 9.33579 3.83978 9.43117 3.83978 9.53062V20.033C3.83978 20.1324 3.87929 20.2278 3.94962 20.2981C4.01995 20.3685 4.11533 20.408 4.21478 20.408Z" fill="white"/>
</svg>
