<svg width="24" height="24" viewBox="0 0 24 24" fill="none" xmlns="http://www.w3.org/2000/svg">
<g clip-path="url(#clip0_1_781)">
<path d="M11.628 16.186L9.581 14.046L16.372 8.093L17.582 9.395L11.628 16.186ZM20.465 22.233C22.605 20.093 24 17.116 24 13.767C24 7.163 18.605 1.767 12 1.767C5.395 1.767 0 7.163 0 13.767C0 17.117 1.302 20.093 3.535 22.233L5.209 20.558C3.442 18.791 2.419 16.465 2.419 13.768C2.41729 12.5092 2.66393 11.2625 3.14479 10.0992C3.62565 8.93588 4.33128 7.87886 5.22127 6.98869C6.11127 6.09851 7.16813 5.39265 8.33134 4.91155C9.49454 4.43045 10.7412 4.18355 12 4.185C13.2586 4.18355 14.5051 4.43038 15.6682 4.91136C16.8313 5.39234 17.8881 6.09801 18.778 6.98798C19.668 7.87795 20.3737 8.93472 20.8546 10.0978C21.3356 11.2609 21.5824 12.5074 21.581 13.766C21.581 16.371 20.465 18.79 18.791 20.557L20.465 22.233Z" fill="white"/>
</g>
<defs>
<clipPath id="clip0_1_781">
<rect width="24" height="24" fill="white"/>
</clipPath>
</defs>
</svg>
