<svg width="24" height="24" viewBox="0 0 24 24" fill="none" xmlns="http://www.w3.org/2000/svg">
<g clip-path="url(#clip0_1_685)">
<path d="M24 12C24 5.37263 18.6274 0 12 0C5.37262 0 0 5.37253 0 12C0 17.9895 4.38825 22.954 10.125 23.8542V15.4688H7.07812V12H10.125V9.35625C10.125 6.34875 11.9166 4.6875 14.6575 4.6875C15.9705 4.6875 17.3438 4.92188 17.3438 4.92188V7.875H15.8306C14.3398 7.875 13.875 8.80003 13.875 9.74906V12H17.2031L16.6711 15.4688H13.875V23.8542C19.6117 22.954 24 17.9896 24 12Z" fill="#3478F6"/>
<path d="M16.6712 15.469L17.2032 12.0002H13.8751V9.74931C13.8751 8.80018 14.34 7.87524 15.8307 7.87524H17.3439V4.92212C17.3439 4.92212 15.9706 4.68774 14.6577 4.68774C11.9167 4.68774 10.1251 6.34899 10.1251 9.35649V12.0002H7.07825V15.469H10.1251V23.8545C10.7454 23.9517 11.3723 24.0004 12.0001 24.0002C12.628 24.0004 13.2549 23.9517 13.8751 23.8545V15.469H16.6712Z" fill="white"/>
</g>
<defs>
<clipPath id="clip0_1_685">
<rect width="24" height="24" fill="white"/>
</clipPath>
</defs>
</svg>
