<svg width="60" height="60" viewBox="0 0 60 60" fill="none" xmlns="http://www.w3.org/2000/svg">
<g clip-path="url(#clip0_1_909)">
<path d="M29.9023 22.3547C25.4681 22.3547 21.8595 25.9621 21.8595 30.3963C21.8595 34.8305 25.4681 38.4379 29.9023 38.4379C34.3365 38.4379 37.9439 34.8305 37.9439 30.3963C37.9439 25.9621 34.3365 22.3547 29.9023 22.3547ZM29.9023 34.8639C27.4386 34.8639 25.4335 32.86 25.4335 30.3963C25.4335 27.9326 27.4386 25.9288 29.9023 25.9288C32.3648 25.9288 34.3698 27.9326 34.3698 30.3963C34.3698 32.8599 32.3648 34.8639 29.9023 34.8639Z" fill="#D2F153"/>
<path d="M46.5085 21.18C43.5027 21.18 41.0569 23.6259 41.0569 26.6329V30.2308C41.0569 36.3281 36.0973 41.2877 30.0012 41.2877C23.9039 41.2877 18.9431 36.3281 18.9431 30.2308V26.6329C18.9431 23.626 16.4973 21.18 13.4903 21.18C10.4846 21.18 8.03992 23.6259 8.03992 26.6329V30.1641C8.03992 36.9333 11.1875 43.3416 16.5068 47.491V58.2131C16.5068 59.1996 17.3062 60.0002 18.2938 60.0002H41.5001C42.4865 60.0002 43.2871 59.1996 43.2871 58.2131V47.5947C48.7351 43.3988 51.9601 36.8714 51.9601 29.9461V26.6329C51.9601 23.626 49.5154 21.18 46.5085 21.18ZM39.713 46.6916V56.4261H20.0809V46.5951C20.0809 46.0185 19.8009 45.4765 19.3315 45.1405C14.4982 41.6916 11.614 36.0934 11.614 30.1641V26.6329C11.614 25.5965 12.455 24.7541 13.4903 24.7541C14.5268 24.7541 15.3691 25.5964 15.3691 26.6329V30.2308C15.3691 38.2986 21.9322 44.8617 30.0012 44.8617C38.0678 44.8617 44.6309 38.2986 44.6309 30.2308V26.6329C44.6309 25.5965 45.4732 24.7541 46.5097 24.7541C47.545 24.7541 48.386 25.5964 48.386 26.6329V29.9461C48.386 36.0255 45.4267 41.7392 40.4707 45.231C40.2366 45.3959 40.0455 45.6147 39.9136 45.8689C39.7818 46.1231 39.713 46.4053 39.713 46.6916ZM22.9591 13.4184L22.6839 18.7175C22.6175 20.022 23.9263 20.9495 25.1286 20.47L30 18.5341L34.8714 20.47C36.0757 20.9477 37.3825 20.0231 37.3161 18.7175L37.0409 13.4184L40.329 9.42383C41.1475 8.43287 40.678 6.91771 39.4331 6.56817L34.352 5.13975L31.4916 0.802059C30.7876 -0.26777 29.2118 -0.266936 28.5084 0.802059L25.648 5.13975L20.5669 6.56817C19.3199 6.91831 18.8539 8.43465 19.671 9.42383L22.9591 13.4184ZM28.2654 7.66433L30 5.03265L31.7346 7.66433C31.9713 8.02329 32.3296 8.28473 32.7437 8.40058L35.8293 9.26788L33.8409 11.6827C33.5573 12.0273 33.4128 12.4654 33.4358 12.911L33.6026 16.1205L30.66 14.9506C30.2361 14.7822 29.7639 14.7822 29.34 14.9506L26.3974 16.1205L26.5642 12.911C26.5868 12.4643 26.4426 12.027 26.1591 11.6827L24.1707 9.26788L27.2563 8.40058C27.6709 8.28502 28.0283 8.02281 28.2654 7.66433ZM16.2608 17.3266C16.9587 18.0245 18.0901 18.0245 18.788 17.3266C19.4859 16.6289 19.4859 15.4973 18.788 14.7994L12.0677 8.07916C11.37 7.38139 10.2384 7.38139 9.54054 8.07916C8.84265 8.77693 8.84265 9.90847 9.54054 10.6064L16.2608 17.3266ZM44.1593 17.3266L50.8795 10.6064C51.5774 9.90859 51.5774 8.77705 50.8795 8.07916C50.1818 7.38139 49.0502 7.38139 48.3523 8.07916L41.6321 14.7994C40.9342 15.4972 40.9342 16.6287 41.6321 17.3266C42.33 18.0245 43.4614 18.0244 44.1593 17.3266Z" fill="#D2F153"/>
</g>
<defs>
<clipPath id="clip0_1_909">
<rect width="60" height="60" fill="white"/>
</clipPath>
</defs>
</svg>
