<svg width="28" height="23" viewBox="0 0 28 23" fill="none" xmlns="http://www.w3.org/2000/svg">
<path fill-rule="evenodd" clip-rule="evenodd" d="M28 0C27.7316 2.07697 26.7121 3.94041 25.2001 5.35108V19.3695H18.2001V8.06059C18.1908 8.06061 18.1814 8.06062 18.1721 8.06062C17.2099 8.06062 16.2797 7.93357 15.4002 7.69661V19.3695H11.2001V9.56757V5.40288C9.74808 4.06957 8.74026 2.32264 8.40015 0.368956V1.09332L3.75688 2.63768C3.18563 2.83072 2.79993 3.36651 2.79993 3.96928V10.4264L0.956947 11.041C0.385301 11.2301 0 11.7659 0 12.3687V20.768C0 21.5402 0.626793 22.1666 1.39976 22.1666H9.79992H16.7999H26.6003C27.374 22.1666 28 21.5402 28 20.768V0ZM4.63973 12.7626L2.79993 13.3772V19.3695H4.20009V16.5683C4.20009 15.7961 4.82687 15.1697 5.59983 15.1697C6.37319 15.1697 6.99999 15.7961 6.99999 16.5683V19.3695H8.40015V11.5098L4.64288 12.7626H4.63973ZM8.40015 4.04415L5.59983 4.97785V9.4927L8.40015 8.55899V4.04415Z" fill="white"/>
</svg>
