<svg width="44" height="40" viewBox="0 0 44 40" fill="none" xmlns="http://www.w3.org/2000/svg">
<path d="M9.81076 9.46942L6.09454 30.1702M34.4865 5.32927L13.6756 5.32928M30.3243 34.3103L9.51347 34.3103M8.68103 9.46942H10.3459C11.5114 9.46942 12.0942 9.46942 12.5393 9.2438C12.9309 9.04533 13.2493 8.72865 13.4488 8.33914C13.6756 7.89633 13.6756 7.31666 13.6756 6.15731V4.50125C13.6756 3.3419 13.6756 2.76222 13.4488 2.31941C13.2493 1.9299 12.9309 1.61322 12.5393 1.41476C12.0942 1.18913 11.5114 1.18913 10.3459 1.18913H8.68103C7.51552 1.18913 6.93276 1.18913 6.48759 1.41476C6.09601 1.61322 5.77764 1.9299 5.57812 2.31941C5.3513 2.76222 5.3513 3.3419 5.3513 4.50125V6.15731C5.3513 7.31666 5.3513 7.89633 5.57812 8.33914C5.77764 8.72865 6.09601 9.04533 6.48759 9.2438C6.93276 9.46942 7.51552 9.46942 8.68103 9.46942ZM4.51887 38.4504H6.18373C7.34925 38.4504 7.93201 38.4504 8.37718 38.2248C8.76876 38.0264 9.08712 37.7097 9.28664 37.3202C9.51347 36.8773 9.51347 36.2977 9.51347 35.1383V33.4823C9.51347 32.3229 9.51347 31.7432 9.28664 31.3004C9.08712 30.9109 8.76876 30.5942 8.37718 30.3958C7.93201 30.1701 7.34925 30.1702 6.18373 30.1702H4.51887C3.35335 30.1702 2.77059 30.1701 2.32542 30.3958C1.93384 30.5942 1.61548 30.9109 1.41596 31.3004C1.18913 31.7432 1.18913 32.3229 1.18913 33.4823V35.1383C1.18913 36.2977 1.18913 36.8773 1.41596 37.3202C1.61548 37.7097 1.93384 38.0264 2.32542 38.2248C2.77059 38.4504 3.35335 38.4504 4.51887 38.4504ZM37.8162 9.46942H39.4811C40.6466 9.46942 41.2293 9.46942 41.6745 9.2438C42.0661 9.04533 42.3845 8.72865 42.584 8.33914C42.8108 7.89633 42.8108 7.31666 42.8108 6.15731V4.50125C42.8108 3.3419 42.8108 2.76222 42.584 2.31941C42.3845 1.9299 42.0661 1.61322 41.6745 1.41476C41.2293 1.18913 40.6466 1.18913 39.4811 1.18913H37.8162C36.6507 1.18913 36.0679 1.18913 35.6228 1.41476C35.2312 1.61322 34.9128 1.9299 34.7133 2.31941C34.4865 2.76222 34.4865 3.3419 34.4865 4.50125V6.15731C34.4865 7.31666 34.4865 7.89633 34.7133 8.33914C34.9128 8.72865 35.2312 9.04533 35.6228 9.2438C36.0679 9.46942 36.6507 9.46942 37.8162 9.46942ZM33.654 38.4504H35.3189C36.4844 38.4504 37.0672 38.4504 37.5123 38.2248C37.9039 38.0264 38.2223 37.7097 38.4218 37.3202C38.6486 36.8773 38.6486 36.2977 38.6486 35.1383V33.4823C38.6486 32.3229 38.6486 31.7432 38.4218 31.3004C38.2223 30.9109 37.9039 30.5942 37.5123 30.3958C37.0672 30.1701 36.4844 30.1702 35.3189 30.1702H33.654C32.4885 30.1702 31.9058 30.1701 31.4606 30.3958C31.069 30.5942 30.7506 30.9109 30.5511 31.3004C30.3243 31.7432 30.3243 32.3229 30.3243 33.4823V35.1383C30.3243 36.2977 30.3243 36.8773 30.5511 37.3202C30.7506 37.7097 31.069 38.0264 31.4606 38.2248C31.9058 38.4504 32.4885 38.4504 33.654 38.4504Z" stroke="white" stroke-width="2.34289" stroke-linecap="round" stroke-linejoin="round"/>
</svg>
