<svg width="29" height="29" viewBox="0 0 29 29" fill="none" xmlns="http://www.w3.org/2000/svg">
<path d="M26.993 28.0793C27.3732 28.0793 27.5634 28.0793 27.7086 28.0053C27.8363 27.9402 27.9402 27.8363 28.0053 27.7086C28.0793 27.5634 28.0793 27.3732 28.0793 26.993V12.8705C28.0793 12.4902 28.0793 12.3001 28.0053 12.1549C27.9402 12.0271 27.8363 11.9232 27.7086 11.8581C27.5634 11.7841 27.3732 11.7841 26.993 11.7841L23.7339 11.7841C23.3537 11.7841 23.1635 11.7841 23.0183 11.8581C22.8906 11.9232 22.7867 12.0271 22.7216 12.1549C22.6476 12.3001 22.6476 12.4902 22.6476 12.8705V16.1295C22.6476 16.5098 22.6476 16.6999 22.5736 16.8451C22.5085 16.9729 22.4046 17.0768 22.2769 17.1419C22.1316 17.2159 21.9415 17.2159 21.5612 17.2159H18.3022C17.9219 17.2159 17.7318 17.2159 17.5866 17.2899C17.4588 17.355 17.355 17.4588 17.2899 17.5866C17.2159 17.7318 17.2159 17.9219 17.2159 18.3022V21.5612C17.2159 21.9415 17.2159 22.1316 17.1419 22.2769C17.0768 22.4046 16.9729 22.5085 16.8451 22.5736C16.6999 22.6476 16.5098 22.6476 16.1295 22.6476H12.8705C12.4902 22.6476 12.3001 22.6476 12.1549 22.7216C12.0271 22.7867 11.9232 22.8906 11.8581 23.0183C11.7841 23.1635 11.7841 23.3537 11.7841 23.7339V26.993C11.7841 27.3732 11.7841 27.5633 11.8581 27.7086C11.9232 27.8363 12.0271 27.9402 12.1549 28.0053C12.3001 28.0793 12.4902 28.0793 12.8705 28.0793L26.993 28.0793Z" stroke="white" stroke-width="1.82803" stroke-linecap="round" stroke-linejoin="round"/>
<path d="M11.7841 7.43875C11.7841 7.05849 11.7841 6.86837 11.8581 6.72313C11.9232 6.59537 12.0271 6.4915 12.1549 6.42641C12.3001 6.3524 12.4902 6.3524 12.8705 6.3524H16.1295C16.5098 6.3524 16.6999 6.3524 16.8451 6.42641C16.9729 6.4915 17.0768 6.59537 17.1419 6.72313C17.2159 6.86837 17.2159 7.05849 17.2159 7.43875V10.6978C17.2159 11.078 17.2159 11.2682 17.1419 11.4134C17.0768 11.5412 16.9729 11.645 16.8451 11.7101C16.6999 11.7841 16.5098 11.7841 16.1295 11.7841H12.8705C12.4902 11.7841 12.3001 11.7841 12.1549 11.7101C12.0271 11.645 11.9232 11.5412 11.8581 11.4134C11.7841 11.2682 11.7841 11.078 11.7841 10.6978V7.43875Z" stroke="white" stroke-width="1.82803" stroke-linecap="round" stroke-linejoin="round"/>
<path d="M2.27861 15.5863C2.27861 15.2061 2.27861 15.016 2.35261 14.8707C2.41771 14.743 2.52158 14.6391 2.64933 14.574C2.79457 14.5 2.9847 14.5 3.36495 14.5H6.62399C7.00425 14.5 7.19438 14.5 7.33962 14.574C7.46737 14.6391 7.57124 14.743 7.63633 14.8707C7.71034 15.016 7.71034 15.2061 7.71034 15.5863V18.8454C7.71034 19.2256 7.71034 19.4158 7.63633 19.561C7.57124 19.6888 7.46737 19.7926 7.33962 19.8577C7.19438 19.9317 7.00425 19.9317 6.62399 19.9317H3.36495C2.9847 19.9317 2.79457 19.9317 2.64933 19.8577C2.52158 19.7926 2.41771 19.6888 2.35261 19.561C2.27861 19.4158 2.27861 19.2256 2.27861 18.8454V15.5863Z" stroke="white" stroke-width="1.82803" stroke-linecap="round" stroke-linejoin="round"/>
<path d="M0.920678 2.00702C0.920678 1.62677 0.920678 1.43664 0.994681 1.2914C1.05978 1.16364 1.16364 1.05978 1.2914 0.994681C1.43664 0.920678 1.62677 0.920678 2.00702 0.920678H5.26606C5.64632 0.920678 5.83644 0.920678 5.98168 0.994681C6.10944 1.05978 6.21331 1.16364 6.2784 1.2914C6.3524 1.43664 6.3524 1.62677 6.3524 2.00702V5.26606C6.3524 5.64632 6.3524 5.83644 6.2784 5.98168C6.21331 6.10944 6.10944 6.21331 5.98168 6.2784C5.83644 6.3524 5.64632 6.3524 5.26606 6.3524H2.00702C1.62677 6.3524 1.43664 6.3524 1.2914 6.2784C1.16364 6.21331 1.05978 6.10944 0.994681 5.98168C0.920678 5.83644 0.920678 5.64632 0.920678 5.26606V2.00702Z" stroke="white" stroke-width="1.82803" stroke-linecap="round" stroke-linejoin="round"/>
</svg>
