<svg width="37" height="24" viewBox="0 0 37 24" fill="none" xmlns="http://www.w3.org/2000/svg">
<path d="M15.3333 -2.86697e-05H2.32848C1.04261 -2.86697e-05 0 1.02866 0 2.31454V9.43201C0 10.4329 0.625617 11.2601 1.48055 11.6006V13.0673C1.4736 13.6859 2.21038 14.1307 2.73168 13.7971L6.33905 11.7675H15.3333C16.6192 11.7675 17.6479 10.7179 17.6479 9.43201V2.31454C17.6479 1.02866 16.6192 -2.86697e-05 15.3333 -2.86697e-05Z" fill="white"/>
<path d="M25.1088 10.0894H19.4862C18.3925 10.0964 18.3925 11.7509 19.4862 11.7579H25.1088C25.4664 11.7579 25.7608 12.0524 25.7608 12.41V19.5259C25.7608 19.8904 25.4664 20.1778 25.1088 20.1778C24.6461 20.1778 24.2745 20.5564 24.2745 21.0191V21.7272C23.9941 21.622 21.5824 20.0797 21.309 20.1778H12.1039C11.7464 20.1778 11.4519 19.8904 11.4519 19.5259V13.8472C11.4519 12.7605 9.78336 12.7535 9.78336 13.8472V19.5259C9.78336 20.8088 10.821 21.8534 12.1039 21.8534H21.0916L24.7021 23.8935C25.2279 24.209 25.9641 23.7813 25.943 23.1644V21.6992C26.8124 21.3627 27.4293 20.5144 27.4293 19.5259V12.41C27.4293 11.127 26.3918 10.0894 25.1088 10.0894Z" fill="white"/>
<path d="M15.7917 15.2526C15.4638 15.5804 15.4638 16.1106 15.7917 16.4314C16.1684 16.7105 17.4031 18.3358 17.9472 18.2451C18.4006 18.4474 20.6817 15.7409 21.4002 15.134C21.728 14.8131 21.728 14.2829 21.4002 13.9551C21.0793 13.6272 20.5492 13.6272 20.2213 13.9551L17.9472 16.2222C17.424 15.7618 16.58 14.4573 15.7917 15.2526Z" fill="white"/>
<path d="M35.4565 15.134H29.5134C28.4252 15.1411 28.4252 16.8017 29.5134 16.8088H35.4565C36.5518 16.8017 36.5518 15.1411 35.4565 15.134Z" fill="white"/>
<path d="M29.514 13.887H32.4878C32.9458 13.887 33.3193 13.5064 33.3193 13.0484C33.3193 12.5903 32.9458 12.2098 32.4878 12.2098H29.514C28.4217 12.2169 28.4217 13.8799 29.514 13.887Z" fill="white"/>
<path d="M31.0024 18.0585H29.5172C28.4261 18.0655 28.4261 19.7268 29.5172 19.7338H31.0024C32.0935 19.7268 32.0935 18.0655 31.0024 18.0585Z" fill="white"/>
<path d="M9.8341 4.76746C9.96974 4.52645 10.0828 4.30899 10.1526 4.14347C10.4913 3.33973 10.1564 2.41522 9.33765 2.0381C8.51893 1.66098 7.6968 2.05202 7.33598 2.80704C6.646 2.33358 5.72559 2.40311 5.21802 3.14196C4.71044 3.8808 4.86974 4.84603 5.56494 5.37273C5.88045 5.61177 6.50446 5.96405 7.09195 6.27754M10.1068 5.42928C9.95364 4.60661 9.25365 4.00495 8.3723 4.16848C7.49095 4.332 6.92107 5.12717 7.04022 5.99118C7.13594 6.68535 7.66434 8.31405 7.86837 8.92754C7.89621 9.01126 7.91013 9.05312 7.9377 9.08231C7.96171 9.10774 7.99363 9.12617 8.02766 9.13425C8.06672 9.14352 8.10993 9.13465 8.19636 9.1169C8.82967 8.98686 10.5044 8.63011 11.1534 8.36592C11.9612 8.0371 12.3781 7.14655 12.0659 6.30096C11.7536 5.45537 10.8958 5.15054 10.1068 5.42928Z" stroke="white" stroke-width="0.457008" stroke-linecap="round" stroke-linejoin="round"/>
</svg>
