<svg width="60" height="60" viewBox="0 0 60 60" fill="none" xmlns="http://www.w3.org/2000/svg">
<path d="M58.125 44.0625H40.3125V39.375C40.3125 38.3805 39.9174 37.4266 39.2141 36.7234C38.5109 36.0201 37.5571 35.625 36.5625 35.625H33.75V34.44C34.9659 33.5917 35.8595 32.3575 36.2859 30.9375H37.5C38.2156 30.9406 38.9053 30.6702 39.428 30.1815C39.9506 29.6928 40.2668 29.0228 40.3117 28.3086C40.3566 27.5945 40.1269 26.8902 39.6696 26.3398C39.2123 25.7895 38.5619 25.4347 37.8516 25.3481L38.3897 23.7338C38.4214 23.6382 38.4376 23.5382 38.4375 23.4375V22.1785C38.4375 20.9853 38.0954 19.8171 37.4518 18.8123C36.8082 17.8076 35.89 17.0084 34.8061 16.5095C33.7223 16.0106 32.5181 15.8328 31.3363 15.9973C30.1545 16.1618 29.0446 16.6616 28.1381 17.4375L27.6384 16.9378C27.2268 16.5262 26.7167 16.2266 26.1567 16.0675C25.5967 15.9085 25.0054 15.8952 24.4388 16.0289C23.8722 16.1627 23.3492 16.439 22.9195 16.8318C22.4897 17.2245 22.1675 17.7206 21.9834 18.2728C21.7044 19.1089 21.5622 19.9846 21.5625 20.866C21.5625 22.0281 21.7051 23.1858 21.9872 24.3131L22.2431 25.3388C21.5233 25.4034 20.8562 25.7434 20.3809 26.2878C19.9057 26.8323 19.6588 27.5391 19.692 28.2611C19.7251 28.983 20.0356 29.6643 20.5587 30.163C21.0819 30.6616 21.7773 30.9391 22.5 30.9375H23.7188C24.1439 32.3568 25.0359 33.5909 26.25 34.44V35.625H23.4375C22.4429 35.625 21.4891 36.0201 20.7859 36.7234C20.0826 37.4266 19.6875 38.3805 19.6875 39.375V44.0625H1.875C1.62636 44.0625 1.3879 44.1613 1.21209 44.3371C1.03627 44.5129 0.9375 44.7514 0.9375 45V48.75C0.9375 48.9987 1.03627 49.2371 1.21209 49.4129C1.3879 49.5888 1.62636 49.6875 1.875 49.6875H4.6875V58.125C4.6875 58.3737 4.78627 58.6121 4.96209 58.7879C5.1379 58.9638 5.37636 59.0625 5.625 59.0625H54.375C54.6236 59.0625 54.8621 58.9638 55.0379 58.7879C55.2137 58.6121 55.3125 58.3737 55.3125 58.125V49.6875H58.125C58.3736 49.6875 58.6121 49.5888 58.7879 49.4129C58.9637 49.2371 59.0625 48.9987 59.0625 48.75V45C59.0625 44.7514 58.9637 44.5129 58.7879 44.3371C58.6121 44.1613 58.3736 44.0625 58.125 44.0625ZM38.4375 28.125C38.4375 28.3737 38.3387 28.6121 38.1629 28.7879C37.9871 28.9638 37.7486 29.0625 37.5 29.0625H36.5625V27.1875H37.5C37.7486 27.1875 37.9871 27.2863 38.1629 27.4621C38.3387 27.6379 38.4375 27.8764 38.4375 28.125ZM23.7619 18.8663C23.845 18.6172 23.9904 18.3935 24.1842 18.2164C24.378 18.0393 24.6139 17.9146 24.8694 17.8542C25.1249 17.7938 25.3917 17.7997 25.6443 17.8714C25.8969 17.943 26.127 18.0779 26.3128 18.2635L27.4622 19.4128C27.638 19.5886 27.8764 19.6873 28.125 19.6873C28.3736 19.6873 28.612 19.5886 28.7878 19.4128L29.1094 19.0913C29.72 18.4807 30.4979 18.0649 31.3448 17.8964C32.1917 17.7279 33.0696 17.8144 33.8673 18.1449C34.6651 18.4753 35.347 19.0349 35.8267 19.7529C36.3064 20.4708 36.5625 21.315 36.5625 22.1785V23.2856L36.1472 24.5306L31.5234 20.8303C31.3855 20.7199 31.2192 20.6507 31.0437 20.6307C30.8682 20.6107 30.6906 20.6407 30.5314 20.7172C30.3722 20.7937 30.2378 20.9137 30.1438 21.0632C30.0498 21.2128 29.9999 21.3859 30 21.5625C29.9975 22.1168 29.7964 22.6518 29.4334 23.0706C29.0703 23.4893 28.5692 23.7642 28.0209 23.8453L24.2419 24.3844C24.1437 24.4005 24.0488 24.4322 23.9606 24.4781L23.805 23.8575C23.5606 22.8791 23.4372 21.8744 23.4375 20.866C23.4376 20.1863 23.5471 19.5111 23.7619 18.8663ZM22.5 29.0625C22.2514 29.0625 22.0129 28.9638 21.8371 28.7879C21.6613 28.6121 21.5625 28.3737 21.5625 28.125C21.5625 27.8764 21.6613 27.6379 21.8371 27.4621C22.0129 27.2863 22.2514 27.1875 22.5 27.1875H23.4375V29.0625H22.5ZM25.3125 29.0625V26.1253L28.2863 25.7006C28.9909 25.5971 29.6577 25.3162 30.2239 24.8842C30.7902 24.4523 31.2373 23.8835 31.5234 23.2313L34.6875 25.7625V29.0625C34.6875 30.3057 34.1936 31.498 33.3146 32.3771C32.4355 33.2562 31.2432 33.75 30 33.75C28.7568 33.75 27.5645 33.2562 26.6854 32.3771C25.8064 31.498 25.3125 30.3057 25.3125 29.0625ZM30 35.625C30.6354 35.6231 31.267 35.5284 31.875 35.3438V36.5625C31.875 37.0598 31.6775 37.5367 31.3258 37.8884C30.9742 38.24 30.4973 38.4375 30 38.4375C29.5027 38.4375 29.0258 38.24 28.6742 37.8884C28.3225 37.5367 28.125 37.0598 28.125 36.5625V35.3438C28.733 35.5284 29.3646 35.6231 30 35.625ZM21.5625 39.375C21.5625 38.8777 21.76 38.4008 22.1117 38.0492C22.4633 37.6976 22.9402 37.5 23.4375 37.5H26.3831C26.5878 38.304 27.0544 39.0169 27.7094 39.5261C28.3644 40.0352 29.1704 40.3116 30 40.3116C30.8296 40.3116 31.6356 40.0352 32.2906 39.5261C32.9456 39.0169 33.4122 38.304 33.6169 37.5H36.5625C37.0598 37.5 37.5367 37.6976 37.8883 38.0492C38.24 38.4008 38.4375 38.8777 38.4375 39.375V44.0625H21.5625V39.375ZM53.4375 57.1875H6.5625V49.6875H53.4375V57.1875ZM57.1875 47.8125H2.8125V45.9375H57.1875V47.8125ZM25.5356 11.0878L29.4553 13.8872C29.6143 14.0007 29.8047 14.0617 30 14.0617C30.1953 14.0617 30.3857 14.0007 30.5447 13.8872L34.4644 11.0888C35.4024 10.4173 36.167 9.53197 36.6949 8.50619C37.2228 7.48042 37.4988 6.34366 37.5 5.19002C37.5003 4.34888 37.2511 3.52655 36.7839 2.82709C36.3166 2.12763 35.6525 1.58247 34.8753 1.2606C34.0982 0.938728 33.2431 0.854608 32.4181 1.01888C31.5932 1.18316 30.8355 1.58844 30.2409 2.18346L30 2.4244L29.7591 2.18346C29.1645 1.58844 28.4068 1.18316 27.5819 1.01888C26.7569 0.854608 25.9018 0.938728 25.1247 1.2606C24.3475 1.58247 23.6834 2.12763 23.2161 2.82709C22.7489 3.52655 22.4997 4.34888 22.5 5.19002C22.5011 6.34354 22.7771 7.48019 23.305 8.50583C23.8329 9.53147 24.5975 10.4166 25.5356 11.0878ZM26.7525 2.81252C27.0648 2.81176 27.3742 2.87292 27.6627 2.99249C27.9512 3.11205 28.2132 3.28763 28.4334 3.50908L29.3372 4.41283C29.513 4.58859 29.7514 4.68732 30 4.68732C30.2486 4.68732 30.487 4.58859 30.6628 4.41283L31.5666 3.50908C31.8991 3.17667 32.3227 2.9503 32.7838 2.8586C33.2449 2.7669 33.7229 2.81398 34.1573 2.99389C34.5917 3.17381 34.9629 3.47847 35.2242 3.86937C35.4854 4.26027 35.6249 4.71986 35.625 5.19002C35.6241 6.04515 35.4196 6.88778 35.0283 7.64815C34.6371 8.40852 34.0703 9.06475 33.375 9.56252L30 11.9728L26.625 9.56252C25.9297 9.06475 25.3629 8.40852 24.9717 7.64815C24.5804 6.88778 24.3759 6.04515 24.375 5.19002C24.3757 4.5597 24.6265 3.9554 25.0722 3.5097C25.5179 3.06399 26.1222 2.81327 26.7525 2.81252ZM43.4541 19.6285L50.9541 16.816C51.101 16.7609 51.2318 16.6699 51.3345 16.5511C51.4371 16.4324 51.5083 16.2898 51.5415 16.1364C51.5748 15.983 51.5689 15.8237 51.5246 15.6732C51.4803 15.5226 51.3989 15.3856 51.2878 15.2747L46.6003 10.5872C46.4894 10.4762 46.3524 10.3947 46.2018 10.3504C46.0513 10.3061 45.892 10.3003 45.7386 10.3335C45.5852 10.3667 45.4426 10.4379 45.3239 10.5405C45.2052 10.6432 45.1141 10.774 45.0591 10.921L42.2466 18.421C42.1934 18.5628 42.1754 18.7155 42.1941 18.8659C42.2128 19.0162 42.2677 19.1598 42.3541 19.2843C42.4404 19.4088 42.5557 19.5105 42.6899 19.5808C42.8242 19.651 42.9735 19.6876 43.125 19.6875C43.2373 19.6874 43.3487 19.6674 43.4541 19.6285ZM46.3041 12.9422L48.9291 15.5672L44.7234 17.1441L46.3041 12.9422ZM9.04594 16.816L16.5459 19.6285C16.6513 19.6674 16.7627 19.6874 16.875 19.6875C17.0265 19.6876 17.1758 19.651 17.3101 19.5808C17.4443 19.5105 17.5596 19.4088 17.6459 19.2843C17.7323 19.1598 17.7872 19.0162 17.8059 18.8659C17.8246 18.7155 17.8066 18.5628 17.7534 18.421L14.9409 10.921C14.8859 10.774 14.7948 10.6432 14.6761 10.5405C14.5574 10.4379 14.4148 10.3667 14.2614 10.3335C14.108 10.3003 13.9487 10.3061 13.7982 10.3504C13.6476 10.3947 13.5106 10.4762 13.3997 10.5872L8.71219 15.2747C8.60115 15.3856 8.51973 15.5226 8.4754 15.6732C8.43106 15.8237 8.42524 15.983 8.45846 16.1364C8.49167 16.2898 8.56287 16.4324 8.66551 16.5511C8.76815 16.6699 8.89896 16.7609 9.04594 16.816ZM13.6959 12.9422L15.2728 17.1478L11.0672 15.571L13.6959 12.9422Z" fill="#D2F153"/>
<path d="M50.9541 35.6842L43.4541 32.8717C43.2855 32.8082 43.1021 32.7948 42.9261 32.8328C42.75 32.8709 42.5886 32.9589 42.4612 33.0862C42.3338 33.2136 42.2458 33.375 42.2078 33.5511C42.1697 33.7272 42.1832 33.9105 42.2466 34.0792L45.0591 41.5792C45.1146 41.726 45.2057 41.8566 45.3244 41.9592C45.4431 42.0619 45.5855 42.1333 45.7388 42.167C45.8041 42.1808 45.8707 42.1877 45.9375 42.1876C46.1862 42.1875 46.4246 42.0887 46.6003 41.9129L51.2878 37.2254C51.3989 37.1145 51.4803 36.9775 51.5246 36.8269C51.569 36.6764 51.5748 36.5171 51.5416 36.3637C51.5084 36.2103 51.4372 36.0677 51.3345 35.949C51.2319 35.8303 51.1011 35.7392 50.9541 35.6842ZM46.3041 39.5626L44.7272 35.357L48.9375 36.9292L46.3041 39.5626ZM16.546 32.8717L9.04597 35.6842C8.899 35.7392 8.76819 35.8303 8.66555 35.949C8.5629 36.0677 8.49171 36.2103 8.45849 36.3637C8.42528 36.5171 8.4311 36.6764 8.47543 36.8269C8.51976 36.9775 8.60118 37.1145 8.71222 37.2254L13.3997 41.9129C13.5755 42.0887 13.8139 42.1875 14.0625 42.1876C14.1293 42.1877 14.1959 42.1808 14.2613 42.167C14.4145 42.1333 14.557 42.0619 14.6756 41.9592C14.7943 41.8566 14.8855 41.726 14.941 41.5792L17.7535 34.0792C17.8169 33.9105 17.8304 33.7272 17.7923 33.5511C17.7543 33.375 17.6663 33.2136 17.5389 33.0862C17.4115 32.9589 17.2501 32.8709 17.074 32.8328C16.8979 32.7948 16.7146 32.8082 16.546 32.8717ZM13.696 39.5626L11.071 36.9376L15.2766 35.3607L13.696 39.5626ZM42.796 27.1285L50.296 29.941C50.4013 29.98 50.5127 30 50.625 30.0001C50.8737 30.0001 51.1121 29.9013 51.288 29.7255C51.4638 29.5497 51.5625 29.3112 51.5625 29.0626V23.4376C51.5626 23.2861 51.526 23.1368 51.4558 23.0025C51.3856 22.8683 51.2838 22.753 51.1593 22.6667C51.0348 22.5803 50.8912 22.5254 50.7409 22.5067C50.5905 22.488 50.4379 22.506 50.296 22.5592L42.796 25.3717C42.6169 25.4384 42.4625 25.5584 42.3534 25.7154C42.2444 25.8724 42.186 26.059 42.186 26.2501C42.186 26.4412 42.2444 26.6278 42.3534 26.7848C42.4625 26.9418 42.6169 27.0618 42.796 27.1285ZM49.6875 24.7904V27.7098L45.795 26.2501L49.6875 24.7904ZM8.43754 29.0626C8.43754 29.3112 8.53631 29.5497 8.71212 29.7255C8.88794 29.9013 9.1264 30.0001 9.37504 30.0001C9.48735 30 9.59875 29.98 9.7041 29.941L17.2041 27.1285C17.3832 27.0618 17.5376 26.9418 17.6466 26.7848C17.7557 26.6278 17.8141 26.4412 17.8141 26.2501C17.8141 26.059 17.7557 25.8724 17.6466 25.7154C17.5376 25.5584 17.3832 25.4384 17.2041 25.3717L9.7041 22.5592C9.56222 22.506 9.40956 22.488 9.2592 22.5067C9.10884 22.5254 8.96526 22.5803 8.84075 22.6667C8.71624 22.753 8.61452 22.8683 8.5443 23.0025C8.47407 23.1368 8.43744 23.2861 8.43754 23.4376V29.0626ZM10.3125 24.7904L14.205 26.2501L10.3125 27.7098V24.7904Z" fill="#D2F153"/>
</svg>
