<svg width="60" height="60" viewBox="0 0 60 60" fill="none" xmlns="http://www.w3.org/2000/svg">
<path d="M57.8999 53.0925H34.5749C34.0762 53.0925 33.6749 52.6913 33.6749 52.1925V51.3788C33.6749 48.6825 35.8687 46.4888 38.5649 46.4888H53.9137C56.6099 46.4888 58.8037 48.6825 58.8037 51.3788V52.1925C58.7999 52.6913 58.3987 53.0925 57.8999 53.0925ZM35.4749 51.2925H56.9999C56.9549 49.6275 55.5862 48.2888 53.9137 48.2888H38.5649C36.8887 48.2925 35.5199 49.6313 35.4749 51.2925Z" fill="#D2F153"/>
<path d="M54.84 57.0039H37.6312C36.3075 57.0039 35.2312 55.9276 35.2312 54.6039V52.1926C35.2312 51.6939 35.6325 51.2926 36.1312 51.2926H56.34C56.8387 51.2926 57.24 51.6939 57.24 52.1926V54.6039C57.24 55.9276 56.1637 57.0039 54.84 57.0039ZM37.0312 53.0926V54.6039C37.0312 54.9339 37.3012 55.2039 37.6312 55.2039H54.84C55.17 55.2039 55.44 54.9339 55.44 54.6039V53.0926H37.0312ZM50.3362 48.2926H42.1387C41.6399 48.2926 41.2387 47.8914 41.2387 47.3926V44.9776C41.2387 43.8601 42.1462 42.9526 43.2637 42.9526H49.2112C50.3287 42.9526 51.2362 43.8601 51.2362 44.9776V47.3926C51.2362 47.8876 50.8312 48.2926 50.3362 48.2926ZM43.0387 46.4926H49.4362V44.9776C49.4362 44.8539 49.335 44.7526 49.2112 44.7526H43.2637C43.1399 44.7526 43.0387 44.8539 43.0387 44.9776V46.4926Z" fill="#D2F153"/>
<path d="M48.5212 44.7488C48.0225 44.7488 47.6212 44.3475 47.6212 43.8488V39.1613C47.6212 37.7813 47.985 36.4463 48.675 35.2988C48.9375 34.86 49.08 34.3538 49.08 33.84C49.08 32.295 47.8237 31.02 46.2825 30.9975H46.2412C44.7075 30.9975 43.4362 32.2313 43.3987 33.7688C43.3875 34.3013 43.5187 34.8188 43.785 35.2763C44.4825 36.465 44.8537 37.8113 44.8537 39.1613V43.8488C44.8537 44.3475 44.4525 44.7488 43.9537 44.7488C43.455 44.7488 43.0537 44.3475 43.0537 43.8488V39.1613C43.0537 38.13 42.7687 37.1025 42.2325 36.1875C41.7959 35.4427 41.5764 34.5906 41.5987 33.7275C41.6587 31.1925 43.77 29.16 46.3087 29.1975C47.535 29.2163 48.6825 29.7075 49.545 30.5813C50.4075 31.455 50.88 32.6138 50.88 33.84C50.88 34.6838 50.6512 35.5088 50.22 36.2288C49.6987 37.095 49.425 38.1113 49.425 39.165V43.8525C49.4212 44.3475 49.02 44.7488 48.5212 44.7488ZM48.5212 48.2925H43.95C43.4512 48.2925 43.05 47.8913 43.05 47.3925C43.05 46.8938 43.4512 46.4925 43.95 46.4925H48.5212C49.02 46.4925 49.4212 46.8938 49.4212 47.3925C49.4212 47.8913 49.02 48.2925 48.5212 48.2925Z" fill="#D2F153"/>
<path d="M37.6312 57.0038H3.59995C2.2762 57.0038 1.19995 55.9276 1.19995 54.6038V5.39634C1.19995 4.07259 2.2762 2.99634 3.59995 2.99634H34.8825C35.5237 2.99634 36.1274 3.24759 36.5812 3.70134L46.4324 13.5526C46.8787 13.9988 47.1337 14.6176 47.1337 15.2513V30.1013C47.1337 30.6001 46.7324 31.0013 46.2337 31.0013C45.735 31.0013 45.3337 30.6001 45.3337 30.1013V15.2513C45.3337 15.0938 45.2699 14.9401 45.1574 14.8276L35.3062 4.97259C35.1937 4.86009 35.0437 4.79634 34.8825 4.79634H3.59995C3.26995 4.79634 2.99995 5.06634 2.99995 5.39634V54.6076C2.99995 54.9376 3.26995 55.2076 3.59995 55.2076H37.6312C38.1299 55.2076 38.5312 55.6088 38.5312 56.1076C38.5312 56.6063 38.1299 57.0038 37.6312 57.0038Z" fill="#D2F153"/>
<path d="M46.1024 15.5251H35.5049C35.0062 15.5251 34.6049 15.1238 34.6049 14.6251V4.03135C34.6049 3.5326 35.0062 3.13135 35.5049 3.13135C36.0037 3.13135 36.4049 3.5326 36.4049 4.03135V13.7251H46.1024C46.6012 13.7251 47.0024 14.1263 47.0024 14.6251C47.0024 15.1238 46.5974 15.5251 46.1024 15.5251ZM30.0787 49.3801H7.61619C7.11744 49.3801 6.71619 48.9788 6.71619 48.4801C6.71619 47.9813 7.11744 47.5801 7.61619 47.5801H30.0749C30.5737 47.5801 30.9749 47.9813 30.9749 48.4801C30.9749 48.9788 30.5737 49.3801 30.0787 49.3801ZM17.6999 41.9888H7.61619C7.11744 41.9888 6.71619 41.5876 6.71619 41.0888C6.71619 40.5901 7.11744 40.1888 7.61619 40.1888H17.6999C18.1987 40.1888 18.5999 40.5901 18.5999 41.0888C18.5999 41.5876 18.1987 41.9888 17.6999 41.9888ZM36.2924 41.9888H21.3074C20.8087 41.9888 20.4074 41.5876 20.4074 41.0888C20.4074 40.5901 20.8087 40.1888 21.3074 40.1888H36.2924C36.7912 40.1888 37.1924 40.5901 37.1924 41.0888C37.1924 41.5876 36.7874 41.9888 36.2924 41.9888ZM28.8299 34.5976H7.61619C7.11744 34.5976 6.71619 34.1963 6.71619 33.6976C6.71619 33.1988 7.11744 32.7976 7.61619 32.7976H28.8262C29.3249 32.7976 29.7262 33.1988 29.7262 33.6976C29.7262 34.1963 29.3249 34.5976 28.8299 34.5976ZM36.6187 34.5976H32.4674C31.9687 34.5976 31.5674 34.1963 31.5674 33.6976C31.5674 33.1988 31.9687 32.7976 32.4674 32.7976H36.6187C37.1174 32.7976 37.5187 33.1988 37.5187 33.6976C37.5187 34.1963 37.1174 34.5976 36.6187 34.5976ZM18.8099 27.2063H7.61619C7.11744 27.2063 6.71619 26.8051 6.71619 26.3063C6.71619 25.8076 7.11744 25.4063 7.61619 25.4063H18.8062C19.3049 25.4063 19.7062 25.8076 19.7062 26.3063C19.7062 26.8051 19.3087 27.2063 18.8099 27.2063ZM40.7174 27.2063H22.5524C22.0537 27.2063 21.6524 26.8051 21.6524 26.3063C21.6524 25.8076 22.0537 25.4063 22.5524 25.4063H40.7174C41.2162 25.4063 41.6174 25.8076 41.6174 26.3063C41.6174 26.8051 41.2162 27.2063 40.7174 27.2063ZM31.1512 19.8113H7.61619C7.11744 19.8113 6.71619 19.4101 6.71619 18.9113C6.71619 18.4126 7.11744 18.0113 7.61619 18.0113H31.1512C31.6499 18.0113 32.0512 18.4126 32.0512 18.9113C32.0512 19.4101 31.6499 19.8113 31.1512 19.8113ZM28.7924 12.4238H7.61619C7.11744 12.4238 6.71619 12.0226 6.71619 11.5238C6.71619 11.0251 7.11744 10.6238 7.61619 10.6238H28.7924C29.2912 10.6238 29.6924 11.0251 29.6924 11.5238C29.6924 12.0226 29.2912 12.4238 28.7924 12.4238Z" fill="#D2F153"/>
</svg>
