<svg width="29" height="28" viewBox="0 0 29 28" fill="none" xmlns="http://www.w3.org/2000/svg">
<path fill-rule="evenodd" clip-rule="evenodd" d="M23.3875 4.44165C22.0814 -0.0969046 16.352 -1.51965 13.0745 1.88071L1.72201 13.6589C-1.55546 17.0592 0.0771132 22.7324 4.66065 23.8706L20.5371 27.8131C25.1206 28.9513 29.2175 24.7008 27.9114 20.1623L23.3875 4.44165ZM11.6118 10.1992C11.7904 9.4798 12.5184 9.04142 13.2379 9.22007C13.9573 9.39871 14.3957 10.1267 14.217 10.8462C14.0384 11.5656 13.3103 12.004 12.5909 11.8253C11.8715 11.6467 11.4331 10.9186 11.6118 10.1992ZM13.435 8.42617C12.2771 8.13865 11.1054 8.84421 10.8179 10.0021C10.5303 11.1599 11.2359 12.3317 12.3938 12.6192C13.5516 12.9067 14.7234 12.2012 15.0109 11.0433C15.2984 9.88543 14.5929 8.7137 13.435 8.42617ZM16.6953 11.0402C16.4761 10.9857 16.2543 11.1193 16.1998 11.3385C16.1454 11.5578 16.279 11.7796 16.4982 11.8341L16.7443 11.8952C17.6149 12.1114 18.2425 12.2675 18.6856 12.417C18.906 12.4913 19.0631 12.5583 19.1733 12.6213C19.2838 12.6844 19.3242 12.7308 19.3386 12.7532C19.4794 12.973 19.4972 13.2498 19.3859 13.4859C19.3745 13.51 19.3404 13.5611 19.2389 13.638C19.1377 13.7146 18.9905 13.8012 18.7815 13.9032C18.3612 14.1083 17.7589 14.3439 16.9233 14.6701L14.2162 15.727L14.1965 15.7347C13.3846 16.0517 12.7508 16.2991 12.2967 16.5208C12.0666 16.6331 11.866 16.7465 11.7042 16.869C11.5428 16.9913 11.3991 17.1382 11.3113 17.3243C11.0798 17.8149 11.1169 18.3902 11.4095 18.847C11.5205 19.0203 11.6819 19.1475 11.8577 19.248C12.0338 19.3487 12.2473 19.4355 12.4899 19.5173C12.9688 19.6787 13.6291 19.8427 14.475 20.0528L14.475 20.0528L14.4955 20.0579L15.0249 20.1893C15.2441 20.2437 15.4659 20.1102 15.5204 19.8909C15.5748 19.6717 15.4412 19.4499 15.222 19.3954L14.6927 19.264C13.822 19.0478 13.1944 18.8916 12.7513 18.7422C12.531 18.6679 12.3738 18.6009 12.2637 18.5379C12.1531 18.4747 12.1127 18.4283 12.0983 18.4059C11.9576 18.1861 11.9397 17.9093 12.0511 17.6733C12.0625 17.6492 12.0966 17.598 12.1981 17.5211C12.2993 17.4445 12.4465 17.3579 12.6555 17.2559C13.0757 17.0508 13.678 16.8153 14.5137 16.489L17.2208 15.4321L17.2404 15.4244C18.0523 15.1075 18.6862 14.86 19.1403 14.6383C19.3704 14.5261 19.571 14.4126 19.7327 14.2901C19.8941 14.1679 20.0379 14.021 20.1257 13.8349C20.3572 13.3442 20.3201 12.769 20.0275 12.3121C19.9165 12.1388 19.755 12.0116 19.5793 11.9111C19.4031 11.8104 19.1896 11.7237 18.947 11.6419C18.4682 11.4804 17.8078 11.3164 16.962 11.1064L16.9619 11.1064L16.9414 11.1013L16.6953 11.0402ZM17.5736 20.1C17.7522 19.3806 18.4802 18.9422 19.1996 19.1209C19.9191 19.2995 20.3574 20.0276 20.1788 20.747C20.0001 21.4664 19.2721 21.9048 18.5527 21.7261C17.8333 21.5475 17.3949 20.8195 17.5736 20.1ZM19.3968 18.327C18.2389 18.0395 17.0672 18.745 16.7797 19.9029C16.4921 21.0608 17.1977 22.2325 18.3556 22.52C19.5134 22.8076 20.6852 22.102 20.9727 20.9441C21.2602 19.7863 20.5547 18.6145 19.3968 18.327Z" fill="white"/>
</svg>
